<?xml version="1.0" encoding="UTF-8" standalone="no"?>
<!DOCTYPE svg PUBLIC "-//W3C//DTD SVG 1.1//EN"
 "http://www.w3.org/Graphics/SVG/1.1/DTD/svg11.dtd">
<!-- Generated by graphviz version 14.1.5 (20260411.2331)
 -->
<!-- Pages: 1 -->
<svg width="1078pt" height="222pt"
 viewBox="0.00 0.00 1078.00 222.00" xmlns="http://www.w3.org/2000/svg" xmlns:xlink="http://www.w3.org/1999/xlink">
<g id="graph0" class="graph" transform="scale(1 1) rotate(0) translate(4 217.75)">
<polygon fill="#ffffff" stroke="none" points="-4,4 -4,-217.75 1074.25,-217.75 1074.25,4 -4,4"/>
<!-- P804 -->
<g id="node1" class="node">
<title>P804</title>
<polygon fill="#ffffff" stroke="black" points="275.25,-181 0,-181 0,-14.75 275.25,-14.75 275.25,-181"/>
<polygon fill="none" stroke="black" points="0,-157.25 0,-181 275.25,-181 275.25,-157.25 0,-157.25"/>
<text xml:space="preserve" text-anchor="start" x="121.88" y="-164.25" font-family="arial" font-size="14.00">P804</text>
<polygon fill="none" stroke="black" points="0,-133.5 0,-157.25 183.5,-157.25 183.5,-133.5 0,-133.5"/>
<text xml:space="preserve" text-anchor="start" x="4" y="-140.5" font-family="arial" font-size="14.00">Molex PicoLock 1.5mm Pitch</text>
<polygon fill="none" stroke="black" points="183.5,-133.5 183.5,-157.25 237.25,-157.25 237.25,-133.5 183.5,-133.5"/>
<text xml:space="preserve" text-anchor="start" x="187.5" y="-140.5" font-family="arial" font-size="14.00">Female</text>
<polygon fill="none" stroke="black" points="237.25,-133.5 237.25,-157.25 275.25,-157.25 275.25,-133.5 237.25,-133.5"/>
<text xml:space="preserve" text-anchor="start" x="241.25" y="-140.5" font-family="arial" font-size="14.00">4&#45;pin</text>
<polygon fill="none" stroke="black" points="0,-109.75 0,-133.5 159.75,-133.5 159.75,-109.75 0,-109.75"/>
<text xml:space="preserve" text-anchor="start" x="54" y="-116.75" font-family="arial" font-size="14.00">VStarD+</text>
<polygon fill="none" stroke="black" points="159.75,-109.75 159.75,-133.5 275.25,-133.5 275.25,-109.75 159.75,-109.75"/>
<text xml:space="preserve" text-anchor="start" x="213.75" y="-116.75" font-family="arial" font-size="14.00">1</text>
<polygon fill="none" stroke="black" points="0,-86 0,-109.75 159.75,-109.75 159.75,-86 0,-86"/>
<text xml:space="preserve" text-anchor="start" x="54" y="-93" font-family="arial" font-size="14.00">VStarD+</text>
<polygon fill="none" stroke="black" points="159.75,-86 159.75,-109.75 275.25,-109.75 275.25,-86 159.75,-86"/>
<text xml:space="preserve" text-anchor="start" x="213.75" y="-93" font-family="arial" font-size="14.00">2</text>
<polygon fill="none" stroke="black" points="0,-62.25 0,-86 159.75,-86 159.75,-62.25 0,-62.25"/>
<text xml:space="preserve" text-anchor="start" x="55.88" y="-69.25" font-family="arial" font-size="14.00">VStarD&#45;</text>
<polygon fill="none" stroke="black" points="159.75,-62.25 159.75,-86 275.25,-86 275.25,-62.25 159.75,-62.25"/>
<text xml:space="preserve" text-anchor="start" x="213.75" y="-69.25" font-family="arial" font-size="14.00">3</text>
<polygon fill="none" stroke="black" points="0,-38.5 0,-62.25 159.75,-62.25 159.75,-38.5 0,-38.5"/>
<text xml:space="preserve" text-anchor="start" x="55.88" y="-45.5" font-family="arial" font-size="14.00">VStarD&#45;</text>
<polygon fill="none" stroke="black" points="159.75,-38.5 159.75,-62.25 275.25,-62.25 275.25,-38.5 159.75,-38.5"/>
<text xml:space="preserve" text-anchor="start" x="213.75" y="-45.5" font-family="arial" font-size="14.00">4</text>
<polygon fill="none" stroke="black" points="0,-14.75 0,-38.5 275.25,-38.5 275.25,-14.75 0,-14.75"/>
<text xml:space="preserve" text-anchor="start" x="79.12" y="-21.75" font-family="arial" font-size="14.00">Starboard Hyperion</text>
</g>
<!-- W1 -->
<g id="node3" class="node">
<title>W1</title>
<polygon fill="#ffffff" stroke="black" points="651,-213.75 419.25,-213.75 419.25,0 651,0 651,-213.75"/>
<polygon fill="none" stroke="black" points="419.25,-190 419.25,-213.75 651,-213.75 651,-190 419.25,-190"/>
<text xml:space="preserve" text-anchor="start" x="524.62" y="-197" font-family="arial" font-size="14.00">W1</text>
<polygon fill="none" stroke="black" points="419.25,-166.25 419.25,-190 448.75,-190 448.75,-166.25 419.25,-166.25"/>
<text xml:space="preserve" text-anchor="start" x="426.88" y="-173.25" font-family="arial" font-size="14.00">4x</text>
<polygon fill="none" stroke="black" points="448.75,-166.25 448.75,-190 587,-190 587,-166.25 448.75,-166.25"/>
<text xml:space="preserve" text-anchor="start" x="456.38" y="-173.25" font-family="arial" font-size="14.00">26 AWG (0.14 mm²)</text>
<polygon fill="none" stroke="black" points="587,-166.25 587,-190 651,-190 651,-166.25 587,-166.25"/>
<text xml:space="preserve" text-anchor="start" x="594.62" y="-173.25" font-family="arial" font-size="14.00">26.0 cm</text>
<text xml:space="preserve" text-anchor="start" x="468.5" y="-151.5" font-family="arial" font-size="14.00"> </text>
<text xml:space="preserve" text-anchor="start" x="421.25" y="-131.75" font-family="arial" font-size="14.00">P804:1:VStarD+</text>
<text xml:space="preserve" text-anchor="start" x="523.5" y="-131.75" font-family="arial" font-size="14.00"> &#160;&#160;&#160;&#160;1 &#160;&#160;&#160;</text>
<text xml:space="preserve" text-anchor="start" x="580" y="-131.75" font-family="arial" font-size="14.00">SP2:1:V+</text>
<polygon fill="#000000" stroke="none" points="419.25,-124.75 419.25,-126.75 651,-126.75 651,-124.75 419.25,-124.75"/>
<polygon fill="#ffffff" stroke="none" points="419.25,-122.75 419.25,-124.75 651,-124.75 651,-122.75 419.25,-122.75"/>
<polygon fill="#000000" stroke="none" points="419.25,-120.75 419.25,-122.75 651,-122.75 651,-120.75 419.25,-120.75"/>
<text xml:space="preserve" text-anchor="start" x="421.25" y="-106" font-family="arial" font-size="14.00">P804:2:VStarD+</text>
<text xml:space="preserve" text-anchor="start" x="523.5" y="-106" font-family="arial" font-size="14.00"> &#160;&#160;&#160;&#160;2 &#160;&#160;&#160;</text>
<text xml:space="preserve" text-anchor="start" x="580" y="-106" font-family="arial" font-size="14.00">SP2:2:V+</text>
<polygon fill="#000000" stroke="none" points="419.25,-99 419.25,-101 651,-101 651,-99 419.25,-99"/>
<polygon fill="#ffffff" stroke="none" points="419.25,-97 419.25,-99 651,-99 651,-97 419.25,-97"/>
<polygon fill="#000000" stroke="none" points="419.25,-95 419.25,-97 651,-97 651,-95 419.25,-95"/>
<text xml:space="preserve" text-anchor="start" x="423.12" y="-80.25" font-family="arial" font-size="14.00">P804:3:VStarD&#45;</text>
<text xml:space="preserve" text-anchor="start" x="523.5" y="-80.25" font-family="arial" font-size="14.00"> &#160;&#160;&#160;&#160;3 &#160;&#160;&#160;</text>
<text xml:space="preserve" text-anchor="start" x="568.75" y="-80.25" font-family="arial" font-size="14.00">SP2:3:PGND</text>
<polygon fill="#000000" stroke="none" points="419.25,-73.25 419.25,-75.25 651,-75.25 651,-73.25 419.25,-73.25"/>
<polygon fill="#ffffff" stroke="none" points="419.25,-71.25 419.25,-73.25 651,-73.25 651,-71.25 419.25,-71.25"/>
<polygon fill="#000000" stroke="none" points="419.25,-69.25 419.25,-71.25 651,-71.25 651,-69.25 419.25,-69.25"/>
<text xml:space="preserve" text-anchor="start" x="423.12" y="-54.5" font-family="arial" font-size="14.00">P804:4:VStarD&#45;</text>
<text xml:space="preserve" text-anchor="start" x="523.5" y="-54.5" font-family="arial" font-size="14.00"> &#160;&#160;&#160;&#160;4 &#160;&#160;&#160;</text>
<text xml:space="preserve" text-anchor="start" x="568.75" y="-54.5" font-family="arial" font-size="14.00">SP2:4:PGND</text>
<polygon fill="#000000" stroke="none" points="419.25,-47.5 419.25,-49.5 651,-49.5 651,-47.5 419.25,-47.5"/>
<polygon fill="#ffffff" stroke="none" points="419.25,-45.5 419.25,-47.5 651,-47.5 651,-45.5 419.25,-45.5"/>
<polygon fill="#000000" stroke="none" points="419.25,-43.5 419.25,-45.5 651,-45.5 651,-43.5 419.25,-43.5"/>
<text xml:space="preserve" text-anchor="start" x="468.5" y="-28.75" font-family="arial" font-size="14.00"> </text>
<polygon fill="none" stroke="black" points="419.25,0 419.25,-23.75 651,-23.75 651,0 419.25,0"/>
<text xml:space="preserve" text-anchor="start" x="513.75" y="-7" font-family="arial" font-size="14.00">Ribbon</text>
</g>
<!-- P804&#45;&#45;W1 -->
<g id="edge1" class="edge">
<title>P804:e&#45;&#45;W1:w</title>
<path fill="none" stroke="#000000" stroke-width="2" d="M275.25,-119.63C339.52,-119.64 355.51,-121.77 419.25,-121.75"/>
<path fill="none" stroke="#ffffff" stroke-width="2" d="M275.25,-121.62C339.26,-121.63 355.24,-123.75 419.25,-123.75"/>
<path fill="none" stroke="#000000" stroke-width="2" d="M275.25,-123.62C338.99,-123.61 354.98,-125.73 419.25,-125.75"/>
</g>
<!-- P804&#45;&#45;W1 -->
<g id="edge3" class="edge">
<title>P804:e&#45;&#45;W1:w</title>
<path fill="none" stroke="#000000" stroke-width="2" d="M275.25,-95.88C339.27,-95.88 355.27,-96 419.25,-96"/>
<path fill="none" stroke="#ffffff" stroke-width="2" d="M275.25,-97.87C339.25,-97.87 355.25,-98 419.25,-98"/>
<path fill="none" stroke="#000000" stroke-width="2" d="M275.25,-99.87C339.23,-99.87 355.23,-100 419.25,-100"/>
</g>
<!-- P804&#45;&#45;W1 -->
<g id="edge5" class="edge">
<title>P804:e&#45;&#45;W1:w</title>
<path fill="none" stroke="#000000" stroke-width="2" d="M275.25,-72.13C339.02,-72.14 355.01,-70.26 419.25,-70.25"/>
<path fill="none" stroke="#ffffff" stroke-width="2" d="M275.25,-74.12C339.26,-74.13 355.24,-72.25 419.25,-72.25"/>
<path fill="none" stroke="#000000" stroke-width="2" d="M275.25,-76.12C339.49,-76.11 355.48,-74.24 419.25,-74.25"/>
</g>
<!-- P804&#45;&#45;W1 -->
<g id="edge7" class="edge">
<title>P804:e&#45;&#45;W1:w</title>
<path fill="none" stroke="#000000" stroke-width="2" d="M275.25,-48.38C338.8,-48.43 354.75,-44.56 419.25,-44.5"/>
<path fill="none" stroke="#ffffff" stroke-width="2" d="M275.25,-50.38C339.27,-50.38 355.23,-46.5 419.25,-46.5"/>
<path fill="none" stroke="#000000" stroke-width="2" d="M275.25,-52.37C339.75,-52.32 355.7,-48.44 419.25,-48.5"/>
</g>
<!-- SP2 -->
<g id="node2" class="node">
<title>SP2</title>
<polygon fill="#ffffff" stroke="black" points="1070.25,-181 795,-181 795,-14.75 1070.25,-14.75 1070.25,-181"/>
<polygon fill="none" stroke="black" points="795,-157.25 795,-181 1070.25,-181 1070.25,-157.25 795,-157.25"/>
<text xml:space="preserve" text-anchor="start" x="919.88" y="-164.25" font-family="arial" font-size="14.00">SP2</text>
<polygon fill="none" stroke="black" points="795,-133.5 795,-157.25 978.5,-157.25 978.5,-133.5 795,-133.5"/>
<text xml:space="preserve" text-anchor="start" x="799" y="-140.5" font-family="arial" font-size="14.00">Molex PicoLock 1.5mm Pitch</text>
<polygon fill="none" stroke="black" points="978.5,-133.5 978.5,-157.25 1032.25,-157.25 1032.25,-133.5 978.5,-133.5"/>
<text xml:space="preserve" text-anchor="start" x="982.5" y="-140.5" font-family="arial" font-size="14.00">Female</text>
<polygon fill="none" stroke="black" points="1032.25,-133.5 1032.25,-157.25 1070.25,-157.25 1070.25,-133.5 1032.25,-133.5"/>
<text xml:space="preserve" text-anchor="start" x="1036.25" y="-140.5" font-family="arial" font-size="14.00">4&#45;pin</text>
<polygon fill="none" stroke="black" points="795,-109.75 795,-133.5 916.5,-133.5 916.5,-109.75 795,-109.75"/>
<text xml:space="preserve" text-anchor="start" x="852" y="-116.75" font-family="arial" font-size="14.00">1</text>
<polygon fill="none" stroke="black" points="916.5,-109.75 916.5,-133.5 1070.25,-133.5 1070.25,-109.75 916.5,-109.75"/>
<text xml:space="preserve" text-anchor="start" x="984.75" y="-116.75" font-family="arial" font-size="14.00">V+</text>
<polygon fill="none" stroke="black" points="795,-86 795,-109.75 916.5,-109.75 916.5,-86 795,-86"/>
<text xml:space="preserve" text-anchor="start" x="852" y="-93" font-family="arial" font-size="14.00">2</text>
<polygon fill="none" stroke="black" points="916.5,-86 916.5,-109.75 1070.25,-109.75 1070.25,-86 916.5,-86"/>
<text xml:space="preserve" text-anchor="start" x="984.75" y="-93" font-family="arial" font-size="14.00">V+</text>
<polygon fill="none" stroke="black" points="795,-62.25 795,-86 916.5,-86 916.5,-62.25 795,-62.25"/>
<text xml:space="preserve" text-anchor="start" x="852" y="-69.25" font-family="arial" font-size="14.00">3</text>
<polygon fill="none" stroke="black" points="916.5,-62.25 916.5,-86 1070.25,-86 1070.25,-62.25 916.5,-62.25"/>
<text xml:space="preserve" text-anchor="start" x="973.5" y="-69.25" font-family="arial" font-size="14.00">PGND</text>
<polygon fill="none" stroke="black" points="795,-38.5 795,-62.25 916.5,-62.25 916.5,-38.5 795,-38.5"/>
<text xml:space="preserve" text-anchor="start" x="852" y="-45.5" font-family="arial" font-size="14.00">4</text>
<polygon fill="none" stroke="black" points="916.5,-38.5 916.5,-62.25 1070.25,-62.25 1070.25,-38.5 916.5,-38.5"/>
<text xml:space="preserve" text-anchor="start" x="973.5" y="-45.5" font-family="arial" font-size="14.00">PGND</text>
<polygon fill="none" stroke="black" points="795,-14.75 795,-38.5 1070.25,-38.5 1070.25,-14.75 795,-14.75"/>
<text xml:space="preserve" text-anchor="start" x="919.12" y="-21.75" font-family="arial" font-size="14.00">EPS</text>
</g>
<!-- W1&#45;&#45;SP2 -->
<g id="edge2" class="edge">
<title>W1:e&#45;&#45;SP2:w</title>
<path fill="none" stroke="#000000" stroke-width="2" d="M651,-121.75C714.74,-121.77 730.73,-119.64 795,-119.63"/>
<path fill="none" stroke="#ffffff" stroke-width="2" d="M651,-123.75C715.01,-123.75 730.99,-121.63 795,-121.62"/>
<path fill="none" stroke="#000000" stroke-width="2" d="M651,-125.75C715.27,-125.73 731.26,-123.61 795,-123.62"/>
</g>
<!-- W1&#45;&#45;SP2 -->
<g id="edge4" class="edge">
<title>W1:e&#45;&#45;SP2:w</title>
<path fill="none" stroke="#000000" stroke-width="2" d="M651,-96C714.98,-96 730.98,-95.88 795,-95.88"/>
<path fill="none" stroke="#ffffff" stroke-width="2" d="M651,-98C715,-98 731,-97.87 795,-97.87"/>
<path fill="none" stroke="#000000" stroke-width="2" d="M651,-100C715.02,-100 731.02,-99.87 795,-99.87"/>
</g>
<!-- W1&#45;&#45;SP2 -->
<g id="edge6" class="edge">
<title>W1:e&#45;&#45;SP2:w</title>
<path fill="none" stroke="#000000" stroke-width="2" d="M651,-70.25C715.24,-70.26 731.23,-72.14 795,-72.13"/>
<path fill="none" stroke="#ffffff" stroke-width="2" d="M651,-72.25C715.01,-72.25 730.99,-74.13 795,-74.12"/>
<path fill="none" stroke="#000000" stroke-width="2" d="M651,-74.25C714.77,-74.24 730.76,-76.11 795,-76.12"/>
</g>
<!-- W1&#45;&#45;SP2 -->
<g id="edge8" class="edge">
<title>W1:e&#45;&#45;SP2:w</title>
<path fill="none" stroke="#000000" stroke-width="2" d="M651,-44.5C715.5,-44.56 731.45,-48.43 795,-48.38"/>
<path fill="none" stroke="#ffffff" stroke-width="2" d="M651,-46.5C715.02,-46.5 730.98,-50.38 795,-50.38"/>
<path fill="none" stroke="#000000" stroke-width="2" d="M651,-48.5C714.55,-48.44 730.5,-52.32 795,-52.37"/>
</g>
</g>
</svg>
